<svg id="Capa_1" enable-background="new 0 0 512 512" height="512" viewBox="0 0 512 512" width="512" xmlns="http://www.w3.org/2000/svg"><g><path d="m482 301.266v-222.532c17.232-4.452 30-20.13 30-38.734 0-22.056-17.944-40-40-40-18.604 0-34.282 12.767-38.734 30h-222.531c-4.453-17.233-20.131-30-38.735-30-22.056 0-40 17.944-40 40 0 18.604 12.768 34.282 30 38.734v222.532c-17.232 4.452-30 20.13-30 38.734 0 22.056 17.944 40 40 40 18.604 0 34.282-12.767 38.734-30h66.266c5.522 0 10-4.478 10-10s-4.478-10-10-10h-66.266c-3.626-14.035-14.699-25.108-28.734-28.734v-222.532c14.035-3.626 25.108-14.699 28.734-28.734h222.531c3.626 14.035 14.699 25.108 28.734 28.734v222.532c-14.035 3.626-25.108 14.699-28.734 28.734h-66.265c-5.522 0-10 4.478-10 10s4.478 10 10 10h66.266c4.452 17.233 20.13 30 38.734 30 22.056 0 40-17.944 40-40 0-18.604-12.767-34.282-30-38.734zm-290 38.734c0 11.028-8.972 20-20 20s-20-8.972-20-20 8.972-20 20-20 20 8.972 20 20zm-20-280c-11.028 0-20-8.972-20-20s8.972-20 20-20 20 8.972 20 20-8.971 20-20 20zm280-20c0-11.028 8.972-20 20-20s20 8.972 20 20-8.972 20-20 20-20-8.972-20-20zm20 320c-11.028 0-20-8.972-20-20s8.972-20 20-20 20 8.972 20 20-8.971 20-20 20z"/><circle cx="322" cy="340" r="10"/><path d="m362 190c0-5.522-4.478-10-10-10h-20v-20c0-5.522-4.478-10-10-10s-10 4.478-10 10v20h-20c-5.522 0-10 4.478-10 10s4.478 10 10 10h20v20c0 5.522 4.478 10 10 10s10-4.478 10-10v-20h20c5.523 0 10-4.477 10-10z"/><path d="m89.929 407.929-87 87c-3.905 3.905-3.905 10.237 0 14.143 1.953 1.952 4.512 2.928 7.071 2.928s5.118-.977 7.071-2.929l87-87c3.905-3.905 3.905-10.237 0-14.143-3.906-3.903-10.236-3.903-14.142.001z"/><path d="m209.929 407.929-87 87c-3.905 3.905-3.905 10.237 0 14.143 1.953 1.952 4.512 2.929 7.071 2.929s5.118-.977 7.071-2.929l87-87c3.905-3.905 3.905-10.237 0-14.143-3.906-3.904-10.236-3.904-14.142 0z"/><path d="m89.929 287.929-87 87c-3.905 3.905-3.905 10.237 0 14.143 1.953 1.952 4.512 2.928 7.071 2.928s5.118-.977 7.071-2.929l87-87c3.905-3.905 3.905-10.237 0-14.143-3.906-3.903-10.236-3.903-14.142.001z"/></g></svg>