<svg height="512pt" viewBox="0 0 512 512" width="512pt" xmlns="http://www.w3.org/2000/svg"><path d="m497 482h-228.027344c-9.761718-35.570312-50.542968-55.507812-87.972656-59.253906v-212.746094h90v45c0 8.285156 6.714844 15 15 15h180c5.683594 0 10.875-3.210938 13.417969-8.292969s1.992187-11.160156-1.417969-15.707031l-38.25-51 38.25-51c3.410156-4.546875 3.957031-10.625 1.417969-15.707031-2.542969-5.082031-7.734375-8.292969-13.417969-8.292969h-135v-45c0-8.285156-6.714844-15-15-15h-107.578125c1.664063-4.695312 2.578125-9.742188 2.578125-15 0-24.8125-20.1875-45-45-45s-45 20.1875-45 45c0 19.554688 12.539062 36.226562 30 42.421875v335.324219c-37.320312 3.738281-78.191406 23.617187-87.972656 59.253906h-48.027344c-8.285156 0-15 6.714844-15 15s6.714844 15 15 15h482c8.285156 0 15-6.714844 15-15s-6.714844-15-15-15zm-61-332-27 36c-4 5.332031-4 12.667969 0 18l27 36h-135v-30h15c8.285156 0 15-6.714844 15-15v-45zm-135 30h-120v-90h120zm-135-150c8.269531 0 15 6.730469 15 15s-6.730469 15-15 15-15-6.730469-15-15 6.730469-15 15-15zm0 422c31.9375 0 59.972656 12.71875 70.527344 30h-141.054688c10.554688-17.28125 38.589844-30 70.527344-30zm0 0"/></svg>