<svg height="512pt" viewBox="0 0 512 512" width="512pt" xmlns="http://www.w3.org/2000/svg"><path d="m417 60h-218v-25c0-19.300781-15.699219-35-35-35h-60c-19.300781 0-35 15.699219-35 35v25.261719c-38.558594 3.070312-69 35.402343-69 74.738281v302c0 41.355469 33.644531 75 75 75h20c15.75 0 29.964844-6.664062 40-17.308594 10.035156 10.644532 24.25 17.308594 40 17.308594h242c52.382812 0 95-42.617188 95-95v-262c0-52.382812-42.617188-95-95-95zm65 357c0 35.839844-29.160156 65-65 65h-242c-13.785156 0-25-11.214844-25-25v-367h267c35.839844 0 65 29.160156 65 65zm-387 65h-20c-24.8125 0-45-20.1875-45-45v-302c0-24.8125 20.1875-45 45-45h45v367c0 13.785156-11.214844 25-25 25zm9-452h60c2.757812 0 5 2.242188 5 5v25h-70v-25c0-2.757812 2.242188-5 5-5zm0 0"/><path d="m316 192c-71.683594 0-130 58.316406-130 130s58.316406 130 130 130 130-58.316406 130-130-58.316406-130-130-130zm0 230c-55.140625 0-100-44.859375-100-100s44.859375-100 100-100 100 44.859375 100 100-44.859375 100-100 100zm0 0"/><path d="m316 252c-38.597656 0-70 31.402344-70 70s31.402344 70 70 70 70-31.402344 70-70-31.402344-70-70-70zm0 110c-22.054688 0-40-17.945312-40-40s17.945312-40 40-40 40 17.945312 40 40-17.945312 40-40 40zm0 0"/><path d="m254.5 150c8.285156 0 15-6.714844 15-15s-6.714844-15-15-15h-60c-8.285156 0-15 6.714844-15 15s6.714844 15 15 15zm0 0"/></svg>